<svg width="14" height="14" viewBox="0 0 14 14" fill="none" xmlns="http://www.w3.org/2000/svg">
<path opacity="0.4" d="M1.16675 5.68746C0.927581 5.68746 0.729248 5.48913 0.729248 5.24996V3.79163C0.729248 2.09996 2.10591 0.729126 3.79175 0.729126H5.25008C5.48925 0.729126 5.68758 0.927459 5.68758 1.16663C5.68758 1.40579 5.48925 1.60413 5.25008 1.60413H3.79175C2.58425 1.60413 1.60425 2.58413 1.60425 3.79163V5.24996C1.60425 5.48913 1.40591 5.68746 1.16675 5.68746Z" fill="#292D32"/>
<path d="M12.8333 5.68746C12.5942 5.68746 12.3958 5.48913 12.3958 5.24996V3.79163C12.3958 2.58413 11.4158 1.60413 10.2083 1.60413H8.75C8.51083 1.60413 8.3125 1.40579 8.3125 1.16663C8.3125 0.927459 8.51083 0.729126 8.75 0.729126H10.2083C11.8942 0.729126 13.2708 2.09996 13.2708 3.79163V5.24996C13.2708 5.48913 13.0725 5.68746 12.8333 5.68746Z" fill="#292D32"/>
<path opacity="0.4" d="M10.2083 13.2709H9.33325C9.09409 13.2709 8.89575 13.0725 8.89575 12.8334C8.89575 12.5942 9.09409 12.3959 9.33325 12.3959H10.2083C11.4158 12.3959 12.3958 11.4159 12.3958 10.2084V9.33337C12.3958 9.09421 12.5941 8.89587 12.8333 8.89587C13.0724 8.89587 13.2708 9.09421 13.2708 9.33337V10.2084C13.2708 11.9 11.8941 13.2709 10.2083 13.2709Z" fill="#292D32"/>
<path d="M5.25008 13.2708H3.79175C2.10591 13.2708 0.729248 11.9 0.729248 10.2083V8.75C0.729248 8.51083 0.927581 8.3125 1.16675 8.3125C1.40591 8.3125 1.60425 8.51083 1.60425 8.75V10.2083C1.60425 11.4158 2.58425 12.3958 3.79175 12.3958H5.25008C5.48925 12.3958 5.68758 12.5942 5.68758 12.8333C5.68758 13.0725 5.48925 13.2708 5.25008 13.2708Z" fill="#292D32"/>
<path d="M5.25 3.0625H4.08333C3.41833 3.0625 3.0625 3.4125 3.0625 4.08333V5.25C3.0625 5.92083 3.41833 6.27083 4.08333 6.27083H5.25C5.915 6.27083 6.27083 5.92083 6.27083 5.25V4.08333C6.27083 3.4125 5.915 3.0625 5.25 3.0625Z" fill="#292D32"/>
<path opacity="0.4" d="M9.91675 3.0625H8.75008C8.08508 3.0625 7.72925 3.4125 7.72925 4.08333V5.25C7.72925 5.92083 8.08508 6.27083 8.75008 6.27083H9.91675C10.5817 6.27083 10.9376 5.92083 10.9376 5.25V4.08333C10.9376 3.4125 10.5817 3.0625 9.91675 3.0625Z" fill="#292D32"/>
<path opacity="0.4" d="M5.25 7.72913H4.08333C3.41833 7.72913 3.0625 8.07913 3.0625 8.74996V9.91663C3.0625 10.5875 3.41833 10.9375 4.08333 10.9375H5.25C5.915 10.9375 6.27083 10.5875 6.27083 9.91663V8.74996C6.27083 8.07913 5.915 7.72913 5.25 7.72913Z" fill="#292D32"/>
<path d="M9.91675 7.72913H8.75008C8.08508 7.72913 7.72925 8.07913 7.72925 8.74996V9.91663C7.72925 10.5875 8.08508 10.9375 8.75008 10.9375H9.91675C10.5817 10.9375 10.9376 10.5875 10.9376 9.91663V8.74996C10.9376 8.07913 10.5817 7.72913 9.91675 7.72913Z" fill="#292D32"/>
</svg>
